<svg xmlns="http://www.w3.org/2000/svg" xmlns:xlink="http://www.w3.org/1999/xlink" version="1.1" x="0px" y="0px" viewBox="0 0 31.99 39.9875" style="enable-background:new 0 0 31.99 31.99;" xml:space="preserve"><g><path d="M15.995,0C7.161,0,0,7.161,0,15.995S7.161,31.99,15.995,31.99S31.99,24.829,31.99,15.995S24.829,0,15.995,0z M5.93,12.192   c-0.151,0.4-0.532,0.647-0.936,0.647c-0.117,0-0.237-0.021-0.354-0.065c-0.517-0.195-0.777-0.772-0.582-1.289   c1.228-3.249,3.768-5.89,6.97-7.244c0.506-0.214,1.095,0.021,1.311,0.531c0.215,0.509-0.022,1.095-0.531,1.311   C9.107,7.227,6.965,9.453,5.93,12.192z M15.995,22.042c-3.339,0-6.047-2.708-6.047-6.047s2.708-6.047,6.047-6.047   s6.047,2.708,6.047,6.047S19.334,22.042,15.995,22.042z"/><circle cx="15.995" cy="15.995" r="2.014"/></g></svg>